<svg xmlns="http://www.w3.org/2000/svg" viewBox="0 0 800 500">  <!-- スタイル定義 -->
  <defs>
    <filter id="shadow" x="-2" y="-2" width="104%" height="104%">
      <feOffset result="offOut" in="SourceAlpha" dx="2" dy="2" />
      <feGaussianBlur result="blurOut" in="offOut" stdDeviation="2" />
      <feBlend in="SourceGraphic" in2="blurOut" mode="normal" />
    </filter>
    <!-- 矢印定義 -->
    <marker id="arrowhead" markerWidth="10" markerHeight="7" refX="0" refY="3.5" orient="auto">
      <polygon points="0 0, 10 3.5, 0 7" fill="#666" />
    </marker>
  </defs>

  <!-- 背景 -->
  <rect width="100%" height="100%" fill="#f8f9fa" rx="10" ry="10" />
  
  <!-- ツリー構造 -->
  <!-- クラスノード（ルート） -->
  <g>
    <rect x="360" y="40" width="80" height="40" rx="5" ry="5" fill="#e1f5fe" stroke="#01579b" stroke-width="2" filter="url(#shadow)" />
    <text x="400" y="65" font-family="Consolas, monospace" font-size="16" text-anchor="middle" fill="#01579b">class</text>
  </g>

  <!-- クラス名ノード -->
  <g>
    <rect x="520" y="120" width="120" height="40" rx="5" ry="5" fill="#e8f5e9" stroke="#1b5e20" stroke-width="2" filter="url(#shadow)" />
    <text x="580" y="145" font-family="Consolas, monospace" font-size="16" text-anchor="middle" fill="#1b5e20">name: Point</text>
  </g>

  <!-- defノード -->
  <g>
    <rect x="200" y="120" width="80" height="40" rx="5" ry="5" fill="#fff3e0" stroke="#e65100" stroke-width="2" filter="url(#shadow)" />
    <text x="240" y="145" font-family="Consolas, monospace" font-size="16" text-anchor="middle" fill="#e65100">def</text>
  </g>

  <!-- 関数名ノード -->
  <g>
    <rect x="340" y="200" width="120" height="40" rx="5" ry="5" fill="#fff8e1" stroke="#f57f17" stroke-width="2" filter="url(#shadow)" />
    <text x="400" y="225" font-family="Consolas, monospace" font-size="16" text-anchor="middle" fill="#f57f17">name: __init__</text>
  </g>

  <!-- 引数ノード -->
  <g>
    <rect x="120" y="200" width="120" height="40" rx="5" ry="5" fill="#f3e5f5" stroke="#4a148c" stroke-width="2" filter="url(#shadow)" />
    <text x="180" y="225" font-family="Consolas, monospace" font-size="16" text-anchor="middle" fill="#4a148c">arguments</text>
  </g>

  <!-- 関数本体ノード -->
  <g>
    <rect x="520" y="200" width="120" height="40" rx="5" ry="5" fill="#ffebee" stroke="#b71c1c" stroke-width="2" filter="url(#shadow)" />
    <text x="580" y="225" font-family="Consolas, monospace" font-size="16" text-anchor="middle" fill="#b71c1c">body</text>
  </g>

  <!-- 引数パラメーター -->
  <g>
    <rect x="40" y="280" width="80" height="40" rx="5" ry="5" fill="#e1bee7" stroke="#4a148c" stroke-width="1.5" filter="url(#shadow)" />
    <text x="80" y="305" font-family="Consolas, monospace" font-size="16" text-anchor="middle" fill="#4a148c">self</text>
  </g>

  <g>
    <rect x="140" y="280" width="80" height="40" rx="5" ry="5" fill="#e1bee7" stroke="#4a148c" stroke-width="1.5" filter="url(#shadow)" />
    <text x="180" y="305" font-family="Consolas, monospace" font-size="16" text-anchor="middle" fill="#4a148c">x</text>
  </g>

  <g>
    <rect x="240" y="280" width="80" height="40" rx="5" ry="5" fill="#e1bee7" stroke="#4a148c" stroke-width="1.5" filter="url(#shadow)" />
    <text x="280" y="305" font-family="Consolas, monospace" font-size="16" text-anchor="middle" fill="#4a148c">y</text>
  </g>

  <!-- 本体ステートメント -->
  <g>
    <rect x="460" y="280" width="120" height="40" rx="5" ry="5" fill="#ffcdd2" stroke="#b71c1c" stroke-width="1.5" filter="url(#shadow)" />
    <text x="520" y="305" font-family="Consolas, monospace" font-size="16" text-anchor="middle" fill="#b71c1c">self.x = x</text>
  </g>

  <g>
    <rect x="600" y="280" width="120" height="40" rx="5" ry="5" fill="#ffcdd2" stroke="#b71c1c" stroke-width="1.5" filter="url(#shadow)" />
    <text x="660" y="305" font-family="Consolas, monospace" font-size="16" text-anchor="middle" fill="#b71c1c">self.y = y</text>
  </g>

  <!-- 接続線（矢印付き） -->
  <!-- クラスから各ノードへの接続 -->
  <path d="M400 80 L240 120" stroke="#666" stroke-width="2" marker-end="url(#arrowhead)" fill="none" />
  <path d="M400 80 L580 120" stroke="#666" stroke-width="2" marker-end="url(#arrowhead)" fill="none" />
  
  <!-- defから下位ノードへの接続 -->
  <path d="M240 160 L180 200" stroke="#666" stroke-width="2" marker-end="url(#arrowhead)" fill="none" />
  <path d="M240 160 L400 200" stroke="#666" stroke-width="2" marker-end="url(#arrowhead)" fill="none" />
  <path d="M240 160 L580 200" stroke="#666" stroke-width="2" marker-end="url(#arrowhead)" fill="none" />
  
  <!-- argumentsから引数への接続 -->
  <path d="M180 240 L80 280" stroke="#666" stroke-width="2" marker-end="url(#arrowhead)" fill="none" />
  <path d="M180 240 L180 280" stroke="#666" stroke-width="2" marker-end="url(#arrowhead)" fill="none" />
  <path d="M180 240 L280 280" stroke="#666" stroke-width="2" marker-end="url(#arrowhead)" fill="none" />
  
  <!-- bodyから代入式への接続 -->
  <path d="M580 240 L520 280" stroke="#666" stroke-width="2" marker-end="url(#arrowhead)" fill="none" />
  <path d="M580 240 L660 280" stroke="#666" stroke-width="2" marker-end="url(#arrowhead)" fill="none" />
  
  <!-- 説明ラベル -->
  <text x="400" y="460" font-family="sans-serif" font-size="18" text-anchor="middle" fill="#333">Python Classの抽象構文木 (AST)</text>
</svg>